<svg width="61" height="61" viewBox="0 0 61 61" fill="none" xmlns="http://www.w3.org/2000/svg">
<g clip-path="url(#clip0_132_321)">
<path d="M31.0689 8.31351C24.1637 11.848 25.2386 20.2031 25.2386 20.2031C25.2386 20.2031 19.1243 14.4275 12.1719 17.9862C6.94652 20.6609 3.10974 27.8511 10.1282 36.1389C17.1466 44.4267 39.4053 47.8329 39.4053 47.8329C39.4053 47.8329 49.5986 27.8156 46.983 17.2741C44.3642 6.73431 36.7165 5.42266 31.0689 8.31351Z" fill="#F44336"/>
<path d="M11.4664 19.2343C16.8872 16.4596 22.5614 20.9093 24.6396 22.8246C24.9351 23.0989 25.4095 22.868 25.3836 22.4676L25.2276 20.2048C22.2794 17.2036 17.4225 15.2987 12.1719 17.9863C9.99731 19.0994 8.06761 20.9939 7.0566 23.4245C8.10481 21.5795 9.70152 20.1377 11.4664 19.2343ZM31.0689 8.31353C29.4017 9.16691 28.0682 10.3069 27.2574 11.6446C27.9249 10.8973 28.92 10.3004 29.9411 9.77776C35.0498 7.16277 41.6054 8.69533 44.1242 18.7057C46.2876 27.299 40.7112 41.9224 39.3715 47.0986C39.2859 47.4287 39.4037 47.8298 39.4037 47.8298C39.4037 47.8298 49.5971 27.8125 46.9814 17.271C44.3642 6.73433 36.726 5.41784 31.0689 8.31353Z" fill="#CC3333"/>
<path d="M9.37436 25.7223C9.80124 23.6424 11.2885 21.3419 13.7981 21.8312C15.1544 22.0955 15.529 23.8685 14.9979 24.9677C14.2276 26.5711 13.4261 27.7092 13.425 29.603C13.4262 30.7399 13.6538 31.8683 14.0266 32.9462C14.1732 33.3724 13.7031 33.7362 13.3287 33.4864C10.792 31.8098 8.75225 28.7572 9.37436 25.7223ZM29.9092 19.1249C29.3545 19.4088 28.6894 19.0731 28.6266 18.453C28.5144 17.3092 28.5287 16.1405 28.6923 15.0227C28.9364 13.3705 30.217 11.824 31.6329 12.026C33.0821 12.2308 33.7113 13.802 33.3354 14.9092C32.5266 17.284 30.7065 18.7168 29.9092 19.1249Z" fill="#FF8A80"/>
</g>
<defs>
<clipPath id="clip0_132_321">
<rect width="45.3181" height="45.3181" fill="white" transform="translate(0 20.6489) rotate(-27.1064)"/>
</clipPath>
</defs>
</svg>
