<svg width="307" height="120" viewBox="0 0 307 120" fill="none" xmlns="http://www.w3.org/2000/svg">
<g clip-path="url(#clip0_2001_2)">
<path d="M10.6711 0L179.478 22.8347L182.916 16.6411L295.774 1.29436L307 111.159L186.089 104.156L183.707 110.349L0 120L10.6711 0Z" fill="#E3212D"/>
<path d="M60.443 59.3423C63.0362 58.9123 65.3974 58.5244 67.6551 58.1491L68.1895 31.6296C70.7412 31.6844 82.1289 32.5951 85.2151 32.8143C86.6815 32.9197 86.9384 33.5648 86.9342 34.8634C86.9011 42.8277 86.9342 50.7962 86.9301 58.7605C86.9218 68.7317 86.8679 78.7029 86.8928 88.6741C86.8928 90.1075 86.5821 90.7821 85.0287 90.9803C80.0618 91.6127 69.0635 93.2106 68.2102 93.2401C68.1066 85.9673 68.003 78.8336 67.8953 71.3921C65.182 71.9655 62.6178 72.4419 60.1033 73.1122C59.7678 73.2008 59.5316 74.2464 59.4944 74.8619C59.0594 82.4721 58.6079 90.078 58.3179 97.6966C58.2475 99.5644 57.6717 100.268 55.8407 100.403C50.5673 100.787 38.7156 101.79 37.9203 101.778C37.9037 101.137 39.8092 56.176 40.7993 34.252C40.965 30.6135 41.0189 30.5587 44.5814 31.1025C49.7015 31.8825 54.8051 32.7806 59.9252 33.5606C61.2176 33.7587 61.7147 34.2478 61.6278 35.656C61.1969 42.8066 60.8614 49.9614 60.4968 57.112C60.4637 57.7823 60.4679 58.4527 60.4471 59.3423" fill="white"/>
<path d="M249.995 104.063C250.273 91.7729 250.542 79.6303 250.828 66.9988C249.444 68.6726 248.305 69.9754 247.253 71.354C246.511 72.3238 245.882 72.4081 244.983 71.5396C243.57 70.1777 242.075 68.9045 240.617 67.5932C240.48 67.6607 240.343 67.7239 240.206 67.7914C240.542 70.5867 240.89 73.382 241.217 76.1773C241.785 81.0554 242.34 85.9377 242.907 90.8158C243.007 91.6759 242.957 92.3252 241.868 92.4854C236.383 93.2949 230.911 94.1508 225.43 94.9813C225.173 95.0193 224.908 94.9855 224.531 94.9855C224.212 90.9296 223.918 86.9875 223.583 83.0496C222.729 72.9773 221.88 62.9049 220.944 52.8367C220.882 52.1664 220.252 51.3653 219.668 50.9648C216.106 48.5194 216.458 49.7505 217.485 45.3573C217.994 43.1902 218.637 41.0526 219.27 38.915C219.867 36.8997 220.124 36.8112 221.864 37.8821C229.051 42.3048 236.23 46.736 243.417 51.1629C243.881 51.4496 244.353 51.7279 244.962 52.0947C245.911 50.7582 246.818 49.4427 247.754 48.1484C250.161 44.8176 252.605 41.5164 254.974 38.1603C255.728 37.0936 256.594 36.8786 257.804 37.0852C260.994 37.6375 264.2 38.0886 267.402 38.5693C269.643 38.9024 269.676 38.8939 269.647 41.2761C269.56 48.4857 269.477 55.6953 269.336 62.9007C269.063 76.814 268.732 90.7272 268.487 104.641C268.462 106.078 268.164 106.673 266.627 106.441C261.155 105.606 255.675 104.86 250.008 104.05" fill="white"/>
<path d="M197.605 48.3972C206.859 48.7472 213.027 53.7096 216.926 61.9563C221.598 71.8432 219.817 84.7826 212.795 92.5656C204.341 101.934 191.486 102.094 182.812 92.945C171.681 81.2031 173.893 59.979 187.137 51.4919C190.397 49.4049 193.935 48.3677 197.605 48.4014M204.374 73.6815C204.419 70.5067 203.931 67.5512 202.232 64.954C199.966 61.4926 196.354 61.5094 194.059 64.9287C191.254 69.1069 191.168 77.8006 193.885 82.0294C196.466 86.0432 200.38 85.8872 202.642 81.6458C203.98 79.1371 204.473 76.4135 204.374 73.6815Z" fill="white"/>
<path d="M151.574 48.3972C159.49 48.6418 165.418 52.938 169.506 60.1898C175.422 70.6711 173.55 85.4234 165.302 93.5564C156.462 102.275 143.413 101.618 135.455 92.0512C126.76 81.5994 126.992 65.4305 136.068 55.3201C140.062 50.8721 145.037 48.4267 151.57 48.4014M157.854 73.6435C157.845 70.0724 157.067 66.9989 155.625 64.8781C153.326 61.4926 149.391 61.404 147.51 65.0426C144.631 70.6079 144.13 76.4599 147.415 82.1053C149.697 86.0263 153.616 85.9041 155.878 81.983C157.357 79.4196 157.961 76.6117 157.854 73.6435Z" fill="white"/>
<path d="M115.584 26.5111L119.175 43.8648L177.199 45.3868L173.015 33.2106L115.584 26.5111Z" fill="white"/>
<path d="M209.962 19.7063L212.742 35.2723L181.801 46.951L182.497 35.9806L209.962 19.7063Z" fill="white"/>
<path d="M93.5083 99.1891C92.4271 82.6702 91.3666 66.5266 90.2937 50.13C96.7477 48.9031 103.077 47.6973 109.776 46.4198V55.1219C112.112 53.3174 113.637 52.2086 115.874 50.3282C123.624 45.4627 128.964 50.5896 130.567 51.437C130.973 51.652 131.474 52.432 131.371 52.7693C129.838 57.6432 128.21 62.4875 126.487 67.6818C124.349 66.2273 122.489 65.0763 120.762 63.7482C119.631 62.8796 118.703 62.8543 117.497 63.5753C115.418 64.8233 113.28 65.9701 111.114 67.0452C110.161 67.5174 109.933 68.1498 109.937 69.1533C109.971 76.4177 109.929 83.6821 109.983 90.9465C109.991 92.1313 109.652 92.7089 108.533 93.1516C104.391 94.7832 100.298 96.5456 96.1843 98.2405C95.4387 98.5483 94.664 98.7844 93.5083 99.1891Z" fill="white"/>
</g>
<defs>
<clipPath id="clip0_2001_2">
<rect width="307" height="120" fill="white"/>
</clipPath>
</defs>
</svg>
