<svg width="27" height="29" viewBox="0 0 27 29" fill="none" xmlns="http://www.w3.org/2000/svg">
<path d="M27 11.8924C24.3459 11.8984 21.7569 11.1205 19.5988 9.66874V19.7941C19.598 21.6694 18.9881 23.4999 17.8505 25.0406C16.713 26.5814 15.102 27.7591 13.233 28.4162C11.364 29.0733 9.32609 29.1785 7.39176 28.7177C5.45742 28.257 3.71887 27.2522 2.40857 25.8378C1.09826 24.4234 0.278665 22.6668 0.0593643 20.8028C-0.159936 18.9388 0.231513 17.0564 1.18137 15.4071C2.13123 13.7579 3.59422 12.4204 5.37472 11.5737C7.15522 10.7269 9.16836 10.4112 11.145 10.6687V15.7614C10.2405 15.494 9.2692 15.5021 8.36987 15.7844C7.47053 16.0668 6.68912 16.6089 6.13723 17.3335C5.58533 18.0581 5.29117 18.928 5.29676 19.8191C5.30234 20.7102 5.60738 21.5768 6.16832 22.2952C6.72927 23.0137 7.51742 23.5471 8.42023 23.8195C9.32304 24.0919 10.2943 24.0892 11.1954 23.8118C12.0965 23.5344 12.8813 22.9966 13.4377 22.275C13.9941 21.5535 14.2937 20.6852 14.2937 19.7941V0H19.5988C19.5951 0.421026 19.6326 0.841478 19.7109 1.25604C19.8952 2.18149 20.2785 3.06187 20.8374 3.84332C21.3962 4.62478 22.1187 5.29089 22.9609 5.8009C24.159 6.5454 25.5637 6.94222 27 6.94193V11.8924Z" fill="white"/>
</svg>
