<svg width="349" height="288" viewBox="0 0 349 288" fill="none" xmlns="http://www.w3.org/2000/svg">
<rect x="0.5" y="0.5" width="348" height="287" fill="white" stroke="#1B99C3"/>
<path d="M22.6157 25.252C20.7197 25.252 19.1537 24.622 17.9177 23.362C16.6817 22.102 16.0637 20.548 16.0637 18.7C16.0637 16.84 16.6817 15.286 17.9177 14.038C19.1537 12.778 20.7197 12.148 22.6157 12.148C23.7557 12.148 24.8057 12.418 25.7657 12.958C26.7377 13.486 27.4937 14.206 28.0337 15.118L25.8917 16.36C25.5797 15.796 25.1357 15.358 24.5597 15.046C23.9837 14.722 23.3357 14.56 22.6157 14.56C21.3917 14.56 20.4017 14.944 19.6457 15.712C18.9017 16.48 18.5297 17.476 18.5297 18.7C18.5297 19.912 18.9017 20.902 19.6457 21.67C20.4017 22.438 21.3917 22.822 22.6157 22.822C23.3357 22.822 23.9837 22.666 24.5597 22.354C25.1477 22.03 25.5917 21.592 25.8917 21.04L28.0337 22.282C27.4937 23.194 26.7437 23.92 25.7837 24.46C24.8237 24.988 23.7677 25.252 22.6157 25.252Z" fill="#1B76CA"/>
<path d="M21.3815 58.624H26.6915V61H18.8975V48.4H26.6015V50.776H21.3815V53.458H26.1515V55.798H21.3815V58.624Z" fill="#1B76CA"/>
<path d="M27.2708 97H24.4448L21.9968 92.896L19.5488 97H16.7408L20.5928 90.538L16.9388 84.4H19.7468L21.9968 88.18L24.2468 84.4H27.0548L23.4008 90.52L27.2708 97Z" fill="#1B76CA"/>
<path d="M22.5594 120.4C23.7714 120.4 24.7914 120.808 25.6194 121.624C26.4474 122.44 26.8614 123.442 26.8614 124.63C26.8614 125.818 26.4474 126.82 25.6194 127.636C24.7914 128.452 23.7714 128.86 22.5594 128.86H20.3454V133H17.8614V120.4H22.5594ZM22.5594 126.538C23.0874 126.538 23.5254 126.358 23.8734 125.998C24.2214 125.626 24.3954 125.17 24.3954 124.63C24.3954 124.078 24.2214 123.622 23.8734 123.262C23.5254 122.902 23.0874 122.722 22.5594 122.722H20.3454V126.538H22.5594Z" fill="#1B76CA"/>
<path d="M27.4789 169H24.6169L20.1169 163.096V169H17.6329V156.4H20.1169V161.962L24.4369 156.4H27.2989L22.6369 162.52L27.4789 169Z" fill="#1B76CA"/>
<path d="M27.0083 202.624H28.3583V207.412H25.8743V205H18.9083V207.412H16.4243V202.624H17.6483C18.3443 201.652 18.6923 200.23 18.6923 198.358V192.4H27.0083V202.624ZM20.3123 202.624H24.5243V194.722H21.1763V198.394C21.1763 200.218 20.8883 201.628 20.3123 202.624Z" fill="#1B76CA"/>
<path d="M22.7294 233.17C23.9534 233.17 24.9554 233.536 25.7354 234.268C26.5154 234.988 26.9054 235.924 26.9054 237.076C26.9054 238.24 26.5154 239.188 25.7354 239.92C24.9554 240.64 23.9534 241 22.7294 241H17.9054V228.4H25.8254V230.776H20.3894V233.17H22.7294ZM22.7294 238.678C23.2214 238.678 23.6294 238.54 23.9534 238.264C24.2774 237.976 24.4394 237.58 24.4394 237.076C24.4394 236.572 24.2774 236.182 23.9534 235.906C23.6294 235.63 23.2214 235.492 22.7294 235.492H20.3894V238.678H22.7294Z" fill="#1B76CA"/>
<path d="M26.0625 263.4V265.776H21.3825V276H18.8985V263.4H26.0625Z" fill="#1B76CA"/>
<path d="M68.7395 12.4H71.2235L67.4435 21.526C66.4355 23.974 64.7795 25.132 62.4755 25V22.678C63.1475 22.738 63.6875 22.648 64.0955 22.408C64.5155 22.156 64.8635 21.754 65.1395 21.202L61.0175 12.4H63.5015L66.2555 18.484L68.7395 12.4Z" fill="#1B76CA"/>
<path d="M67.8486 48.4H70.3146V61H67.8486V55.78H63.1686V61H60.6846V48.4H63.1686V53.404H67.8486V48.4Z" fill="#1B76CA"/>
<path d="M68.7583 97L68.0023 94.732H62.9803L62.2243 97H59.5423L63.9523 84.4H67.0303L71.4583 97H68.7583ZM63.7723 92.41H67.2283L65.5003 87.262L63.7723 92.41Z" fill="#1B76CA"/>
<path d="M67.9043 133V125.314L62.5043 133H60.6143V120.4H63.0983V128.104L68.4983 120.4H70.3883V133H67.9043Z" fill="#1B76CA"/>
<path d="M64.7618 156.4H67.2458V169H64.7618V156.4Z" fill="#1B76CA"/>
<path d="M66.5594 192.4C67.7714 192.4 68.7914 192.808 69.6194 193.624C70.4474 194.44 70.8614 195.442 70.8614 196.63C70.8614 197.818 70.4474 198.82 69.6194 199.636C68.7914 200.452 67.7714 200.86 66.5594 200.86H64.3454V205H61.8614V192.4H66.5594ZM66.5594 198.538C67.0874 198.538 67.5254 198.358 67.8734 197.998C68.2214 197.626 68.3954 197.17 68.3954 196.63C68.3954 196.078 68.2214 195.622 67.8734 195.262C67.5254 194.902 67.0874 194.722 66.5594 194.722H64.3454V198.538H66.5594Z" fill="#1B76CA"/>
<path d="M68.7583 241L68.0023 238.732H62.9803L62.2243 241H59.5423L63.9523 228.4H67.0303L71.4583 241H68.7583ZM63.7723 236.41H67.2283L65.5003 231.262L63.7723 236.41Z" fill="#1B76CA"/>
<path d="M64.3815 273.624H69.6915V276H61.8975V263.4H69.6015V265.776H64.3815V268.458H69.1515V270.798H64.3815V273.624Z" fill="#1B76CA"/>
<path d="M114.144 12.4V14.776H110.742V25H108.258V14.776H104.874V12.4H114.144Z" fill="#1B76CA"/>
<path d="M108.382 58.624H113.692V61H105.898V48.4H113.602V50.776H108.382V53.458H113.152V55.798H108.382V58.624Z" fill="#1B76CA"/>
<path d="M114.979 97H112.117L107.617 91.096V97H105.133V84.4H107.617V89.962L111.937 84.4H114.799L110.137 90.52L114.979 97Z" fill="#1B76CA"/>
<path d="M109.616 133.252C107.72 133.252 106.154 132.622 104.918 131.362C103.682 130.102 103.064 128.548 103.064 126.7C103.064 124.84 103.682 123.286 104.918 122.038C106.154 120.778 107.72 120.148 109.616 120.148C110.756 120.148 111.806 120.418 112.766 120.958C113.738 121.486 114.494 122.206 115.034 123.118L112.892 124.36C112.58 123.796 112.136 123.358 111.56 123.046C110.984 122.722 110.336 122.56 109.616 122.56C108.392 122.56 107.402 122.944 106.646 123.712C105.902 124.48 105.53 125.476 105.53 126.7C105.53 127.912 105.902 128.902 106.646 129.67C107.402 130.438 108.392 130.822 109.616 130.822C110.336 130.822 110.984 130.666 111.56 130.354C112.148 130.03 112.592 129.592 112.892 129.04L115.034 130.282C114.494 131.194 113.744 131.92 112.784 132.46C111.824 132.988 110.768 133.252 109.616 133.252Z" fill="#1B76CA"/>
<path d="M114.144 156.4V158.776H110.742V169H108.258V158.776H104.874V156.4H114.144Z" fill="#1B76CA"/>
<path d="M111.74 192.4H114.224L110.444 201.526C109.436 203.974 107.78 205.132 105.476 205V202.678C106.148 202.738 106.688 202.648 107.096 202.408C107.516 202.156 107.864 201.754 108.14 201.202L104.018 192.4H106.502L109.256 198.484L111.74 192.4Z" fill="#1B76CA"/>
<path d="M109.559 228.4C110.771 228.4 111.791 228.808 112.619 229.624C113.447 230.44 113.861 231.442 113.861 232.63C113.861 233.818 113.447 234.82 112.619 235.636C111.791 236.452 110.771 236.86 109.559 236.86H107.345V241H104.861V228.4H109.559ZM109.559 234.538C110.087 234.538 110.525 234.358 110.873 233.998C111.221 233.626 111.395 233.17 111.395 232.63C111.395 232.078 111.221 231.622 110.873 231.262C110.525 230.902 110.087 230.722 109.559 230.722H107.345V234.538H109.559Z" fill="#1B76CA"/>
<path d="M112.758 276L112.002 273.732H106.98L106.224 276H103.542L107.952 263.4H111.03L115.458 276H112.758ZM107.772 271.41H111.228L109.5 266.262L107.772 271.41Z" fill="#1B76CA"/>
<path d="M156.758 25L156.002 22.732H150.98L150.224 25H147.542L151.952 12.4H155.03L159.458 25H156.758ZM151.772 20.41H155.228L153.5 15.262L151.772 20.41Z" fill="#1B76CA"/>
<path d="M154.559 48.4C155.771 48.4 156.791 48.808 157.619 49.624C158.447 50.44 158.861 51.442 158.861 52.63C158.861 53.818 158.447 54.82 157.619 55.636C156.791 56.452 155.771 56.86 154.559 56.86H152.345V61H149.861V48.4H154.559ZM154.559 54.538C155.087 54.538 155.525 54.358 155.873 53.998C156.221 53.626 156.395 53.17 156.395 52.63C156.395 52.078 156.221 51.622 155.873 51.262C155.525 50.902 155.087 50.722 154.559 50.722H152.345V54.538H154.559Z" fill="#1B76CA"/>
<path d="M158.144 95.362C156.872 96.622 155.324 97.252 153.5 97.252C151.676 97.252 150.128 96.622 148.856 95.362C147.596 94.09 146.966 92.536 146.966 90.7C146.966 88.864 147.596 87.316 148.856 86.056C150.128 84.784 151.676 84.148 153.5 84.148C155.324 84.148 156.872 84.784 158.144 86.056C159.416 87.316 160.052 88.864 160.052 90.7C160.052 92.536 159.416 94.09 158.144 95.362ZM150.602 93.67C151.382 94.438 152.348 94.822 153.5 94.822C154.652 94.822 155.618 94.438 156.398 93.67C157.178 92.89 157.568 91.9 157.568 90.7C157.568 89.5 157.178 88.51 156.398 87.73C155.618 86.95 154.652 86.56 153.5 86.56C152.348 86.56 151.382 86.95 150.602 87.73C149.822 88.51 149.432 89.5 149.432 90.7C149.432 91.9 149.822 92.89 150.602 93.67Z" fill="#1B76CA"/>
<path d="M159.661 120.4V133H157.195V124.828L153.649 130.678H153.361L149.815 124.846V133H147.331V120.4H149.887L153.505 126.358L157.105 120.4H159.661Z" fill="#1B76CA"/>
<path d="M156.758 169L156.002 166.732H150.98L150.224 169H147.542L151.952 156.4H155.03L159.458 169H156.758ZM151.772 164.41H155.228L153.5 159.262L151.772 164.41Z" fill="#1B76CA"/>
<path d="M156.803 198.484C158.003 199.12 158.603 200.116 158.603 201.472C158.603 202.6 158.177 203.512 157.325 204.208C156.473 204.904 155.375 205.252 154.031 205.252C151.691 205.252 150.125 204.262 149.333 202.282L151.475 201.076C151.859 202.3 152.711 202.912 154.031 202.912C154.715 202.912 155.237 202.768 155.597 202.48C155.957 202.192 156.137 201.802 156.137 201.31C156.137 200.818 155.957 200.428 155.597 200.14C155.249 199.852 154.745 199.708 154.085 199.708H152.519V197.494H153.707C154.331 197.494 154.817 197.362 155.165 197.098C155.513 196.822 155.687 196.45 155.687 195.982C155.687 195.514 155.537 195.148 155.237 194.884C154.937 194.608 154.493 194.47 153.905 194.47C152.825 194.47 152.069 194.998 151.637 196.054L149.531 194.83C150.383 193.042 151.841 192.148 153.905 192.148C155.153 192.148 156.173 192.484 156.965 193.156C157.757 193.828 158.153 194.716 158.153 195.82C158.153 196.948 157.703 197.836 156.803 198.484Z" fill="#1B76CA"/>
<path d="M156.74 228.4H159.224L155.444 237.526C154.436 239.974 152.78 241.132 150.476 241V238.678C151.148 238.738 151.688 238.648 152.096 238.408C152.516 238.156 152.864 237.754 153.14 237.202L149.018 228.4H151.502L154.256 234.484L156.74 228.4Z" fill="#1B76CA"/>
<path d="M158.704 263.4V276H156.22V265.776H151.774V276H149.29V263.4H158.704Z" fill="#1B76CA"/>
<path d="M199.849 12.4H202.315V25H199.849V19.78H195.169V25H192.685V12.4H195.169V17.404H199.849V12.4Z" fill="#1B76CA"/>
<path d="M201.563 48.4V50.776H196.883V61H194.399V48.4H201.563Z" fill="#1B76CA"/>
<path d="M191.616 97V94.696C192.36 94.804 192.918 94.654 193.29 94.246C193.662 93.838 193.848 93.04 193.848 91.852V84.4H202.416V97H199.95V86.776H196.314V91.78C196.314 92.872 196.182 93.79 195.918 94.534C195.654 95.278 195.288 95.83 194.82 96.19C194.364 96.55 193.872 96.79 193.344 96.91C192.828 97.03 192.252 97.06 191.616 97Z" fill="#1B76CA"/>
<path d="M200.758 133L200.002 130.732H194.98L194.224 133H191.542L195.952 120.4H199.03L203.458 133H200.758ZM195.772 128.41H199.228L197.5 123.262L195.772 128.41Z" fill="#1B76CA"/>
<path d="M191.616 169V166.696C192.36 166.804 192.918 166.654 193.29 166.246C193.662 165.838 193.848 165.04 193.848 163.852V156.4H202.416V169H199.95V158.776H196.314V163.78C196.314 164.872 196.182 165.79 195.918 166.534C195.654 167.278 195.288 167.83 194.82 168.19C194.364 168.55 193.872 168.79 193.344 168.91C192.828 169.03 192.252 169.06 191.616 169Z" fill="#1B76CA"/>
<path d="M196.262 192.4H198.746V205H196.262V192.4Z" fill="#1B76CA"/>
<path d="M203.271 241H200.445L197.997 236.896L195.549 241H192.741L196.593 234.538L192.939 228.4H195.747L197.997 232.18L200.247 228.4H203.055L199.401 234.52L203.271 241Z" fill="#1B76CA"/>
<path d="M196.262 263.4H198.746V276H196.262V263.4Z" fill="#1B76CA"/>
<path d="M245.87 22.624H247.22V27.412H244.736V25H236.456V12.4H238.94V22.624H243.386V12.4H245.87V22.624Z" fill="#1B76CA"/>
<path d="M239.762 48.4H242.246V61H239.762V48.4Z" fill="#1B76CA"/>
<path d="M239.762 84.4H242.246V97H239.762V84.4Z" fill="#1B76CA"/>
<path d="M246.979 133H244.117L239.617 127.096V133H237.133V120.4H239.617V125.962L243.937 120.4H246.799L242.137 126.52L246.979 133Z" fill="#1B76CA"/>
<path d="M244.758 169L244.002 166.732H238.98L238.224 169H235.542L239.952 156.4H243.03L247.458 169H244.758ZM239.772 164.41H243.228L241.5 159.262L239.772 164.41Z" fill="#1B76CA"/>
<path d="M246.979 205H244.117L239.617 199.096V205H237.133V192.4H239.617V197.962L243.937 192.4H246.799L242.137 198.52L246.979 205Z" fill="#1B76CA"/>
<path d="M241.559 228.4C242.771 228.4 243.791 228.808 244.619 229.624C245.447 230.44 245.861 231.442 245.861 232.63C245.861 233.818 245.447 234.82 244.619 235.636C243.791 236.452 242.771 236.86 241.559 236.86H239.345V241H236.861V228.4H241.559ZM241.559 234.538C242.087 234.538 242.525 234.358 242.873 233.998C243.221 233.626 243.395 233.17 243.395 232.63C243.395 232.078 243.221 231.622 242.873 231.262C242.525 230.902 242.087 230.722 241.559 230.722H239.345V234.538H241.559Z" fill="#1B76CA"/>
<path d="M241.616 276.252C239.72 276.252 238.154 275.622 236.918 274.362C235.682 273.102 235.064 271.548 235.064 269.7C235.064 267.84 235.682 266.286 236.918 265.038C238.154 263.778 239.72 263.148 241.616 263.148C242.756 263.148 243.806 263.418 244.766 263.958C245.738 264.486 246.494 265.206 247.034 266.118L244.892 267.36C244.58 266.796 244.136 266.358 243.56 266.046C242.984 265.722 242.336 265.56 241.616 265.56C240.392 265.56 239.402 265.944 238.646 266.712C237.902 267.48 237.53 268.476 237.53 269.7C237.53 270.912 237.902 271.902 238.646 272.67C239.402 273.438 240.392 273.822 241.616 273.822C242.336 273.822 242.984 273.666 243.56 273.354C244.148 273.03 244.592 272.592 244.892 272.04L247.034 273.282C246.494 274.194 245.744 274.92 244.784 275.46C243.824 275.988 242.768 276.252 241.616 276.252Z" fill="#1B76CA"/>
<path d="M283.762 12.4H286.246V25H283.762V12.4Z" fill="#1B76CA"/>
<path d="M289.446 48.4V61H286.962V56.626H285.54L282.642 61H279.852L282.93 56.356C282.126 56.068 281.472 55.576 280.968 54.88C280.464 54.184 280.212 53.416 280.212 52.576C280.212 51.424 280.62 50.44 281.436 49.624C282.252 48.808 283.242 48.4 284.406 48.4H289.446ZM284.406 54.448H286.962V50.722H284.406C283.938 50.722 283.536 50.902 283.2 51.262C282.864 51.622 282.696 52.06 282.696 52.576C282.696 53.092 282.864 53.536 283.2 53.908C283.536 54.268 283.938 54.448 284.406 54.448Z" fill="#1B76CA"/>
<path d="M285.559 84.4C286.771 84.4 287.791 84.808 288.619 85.624C289.447 86.44 289.861 87.442 289.861 88.63C289.861 89.818 289.447 90.82 288.619 91.636C287.791 92.452 286.771 92.86 285.559 92.86H283.345V97H280.861V84.4H285.559ZM285.559 90.538C286.087 90.538 286.525 90.358 286.873 89.998C287.221 89.626 287.395 89.17 287.395 88.63C287.395 88.078 287.221 87.622 286.873 87.262C286.525 86.902 286.087 86.722 285.559 86.722H283.345V90.538H285.559Z" fill="#1B76CA"/>
<path d="M287.758 133L287.002 130.732H281.98L281.224 133H278.542L282.952 120.4H286.03L290.458 133H287.758ZM282.772 128.41H286.228L284.5 123.262L282.772 128.41Z" fill="#1B76CA"/>
<path d="M281.882 155.248V153.232H287.102V155.248H281.882ZM286.904 169V161.314L281.504 169H279.614V156.4H282.098V164.104L287.498 156.4H289.388V169H286.904Z" fill="#1B76CA"/>
<path d="M286.904 205V197.314L281.504 205H279.614V192.4H282.098V200.104L287.498 192.4H289.388V205H286.904Z" fill="#1B76CA"/>
<path d="M287.74 228.4H290.224L286.444 237.526C285.436 239.974 283.78 241.132 281.476 241V238.678C282.148 238.738 282.688 238.648 283.096 238.408C283.516 238.156 283.864 237.754 284.14 237.202L280.018 228.4H282.502L285.256 234.484L287.74 228.4Z" fill="#1B76CA"/>
<path d="M287.349 263.4H289.815V276H287.349V270.78H282.669V276H280.185V263.4H282.669V268.404H287.349V263.4Z" fill="#1B76CA"/>
<path d="M334.661 12.4V25H332.195V16.828L328.649 22.678H328.361L324.815 16.846V25H322.331V12.4H324.887L328.505 18.358L332.105 12.4H334.661Z" fill="#1B76CA"/>
<path d="M331.24 48.4H333.724L329.944 57.526C328.936 59.974 327.28 61.132 324.976 61V58.678C325.648 58.738 326.188 58.648 326.596 58.408C327.016 58.156 327.364 57.754 327.64 57.202L323.518 48.4H326.002L328.756 54.484L331.24 48.4Z" fill="#1B76CA"/>
<path d="M331.303 90.484C332.503 91.12 333.103 92.116 333.103 93.472C333.103 94.6 332.677 95.512 331.825 96.208C330.973 96.904 329.875 97.252 328.531 97.252C326.191 97.252 324.625 96.262 323.833 94.282L325.975 93.076C326.359 94.3 327.211 94.912 328.531 94.912C329.215 94.912 329.737 94.768 330.097 94.48C330.457 94.192 330.637 93.802 330.637 93.31C330.637 92.818 330.457 92.428 330.097 92.14C329.749 91.852 329.245 91.708 328.585 91.708H327.019V89.494H328.207C328.831 89.494 329.317 89.362 329.665 89.098C330.013 88.822 330.187 88.45 330.187 87.982C330.187 87.514 330.037 87.148 329.737 86.884C329.437 86.608 328.993 86.47 328.405 86.47C327.325 86.47 326.569 86.998 326.137 88.054L324.031 86.83C324.883 85.042 326.341 84.148 328.405 84.148C329.653 84.148 330.673 84.484 331.465 85.156C332.257 85.828 332.653 86.716 332.653 87.82C332.653 88.948 332.203 89.836 331.303 90.484Z" fill="#1B76CA"/>
<path d="M330.904 133V125.314L325.504 133H323.614V120.4H326.098V128.104L331.498 120.4H333.388V133H330.904Z" fill="#1B76CA"/>
<path d="M334.479 169H331.617L327.117 163.096V169H324.633V156.4H327.117V161.962L331.437 156.4H334.299L329.637 162.52L334.479 169Z" fill="#1B76CA"/>
<path d="M331.758 205L331.002 202.732H325.98L325.224 205H322.542L326.952 192.4H330.03L334.458 205H331.758ZM326.772 200.41H330.228L328.5 195.262L326.772 200.41Z" fill="#1B76CA"/>
<path d="M334.661 228.4V241H332.195V232.828L328.649 238.678H328.361L324.815 232.846V241H322.331V228.4H324.887L328.505 234.358L332.105 228.4H334.661Z" fill="#1B76CA"/>
<path d="M333.446 263.4V276H330.962V271.626H329.54L326.642 276H323.852L326.93 271.356C326.126 271.068 325.472 270.576 324.968 269.88C324.464 269.184 324.212 268.416 324.212 267.576C324.212 266.424 324.62 265.44 325.436 264.624C326.252 263.808 327.242 263.4 328.406 263.4H333.446ZM328.406 269.448H330.962V265.722H328.406C327.938 265.722 327.536 265.902 327.2 266.262C326.864 266.622 326.696 267.06 326.696 267.576C326.696 268.092 326.864 268.536 327.2 268.908C327.536 269.268 327.938 269.448 328.406 269.448Z" fill="#1B76CA"/>
<rect x="43" y="1" width="1" height="286" fill="#ADC7D0"/>
<rect x="87" y="1" width="1" height="286" fill="#ADC7D0"/>
<rect x="131" y="1" width="1" height="286" fill="#ADC7D0"/>
<rect x="175" y="1" width="1" height="286" fill="#ADC7D0"/>
<rect x="219" y="1" width="1" height="286" fill="#ADC7D0"/>
<rect x="263" y="1" width="1" height="286" fill="#ADC7D0"/>
<rect x="307" y="1" width="1" height="286" fill="#ADC7D0"/>
<rect x="1" y="36" width="347" height="1" fill="#ADC7D0"/>
<rect x="1" y="72" width="347" height="1" fill="#ADC7D0"/>
<rect x="1" y="108" width="347" height="1" fill="#ADC7D0"/>
<rect x="1" y="143" width="347" height="1" fill="#ADC7D0"/>
<rect x="1" y="179" width="347" height="1" fill="#ADC7D0"/>
<rect x="1" y="215" width="347" height="1" fill="#ADC7D0"/>
<rect x="1" y="251" width="347" height="1" fill="#ADC7D0"/>
</svg>
